<svg width="87" height="192" fill="none" xmlns="http://www.w3.org/2000/svg"><g clip-path="url(#clip0)"><path d="M43.113 70.227l1.005 44.528-41.707 3.617L0 145.614l5.786-5.786s62.44 13.019 76.905 0c14.465-13.018-20.131-61.46-20.131-61.46" fill="#CA4141"/><path d="M43.567 90.315l.551 24.441-26 2.254a74.693 74.693 0 00-1.483 14.983 76.88 76.88 0 00.635 9.914c11.468 1.868 29.446 4.23 44.092 3.604a75.378 75.378 0 001.198-13.518c0-20.873-8.203-38.213-18.993-41.678z" fill="#000"/><path d="M56.126 70.227s4.867 79.433-8.878 117.042l2.87 4.219H25.672S23 90.453 23 68.645l33.126 1.582z" fill="#CA4141"/><path d="M56.126 70.227s4.867 79.433-8.878 117.042l2.87 4.219" stroke="#000" stroke-width=".5" stroke-linecap="round" stroke-linejoin="round"/><path d="M48.008 8.768V19.09l-12.789 3.143V4.814L48.008 1.67v7.098z" fill="#EDEEEF"/><path d="M40.784 12.34a.342.342 0 100-.684.342.342 0 000 .684zm5.252 0a.342.342 0 100-.684.342.342 0 000 .684z" fill="#000"/><path d="M44.495 14.037V8.768h2.64m-6.995 0h2.64" stroke="#000" stroke-width=".5" stroke-linecap="round" stroke-linejoin="round"/><path d="M36.062 11.468v1.83a1.787 1.787 0 01-1.78-1.95c.1-1.11 1.78-.994 1.78.12z" fill="#EDEEEF"/><path d="M36.062 13.298c-.987 0-1.787-.8-1.787-1.787" stroke="#000" stroke-width=".5" stroke-linecap="round" stroke-linejoin="round"/><path d="M43.34 15.336a1.81 1.81 0 01-1.809-1.809" stroke="#CA4141" stroke-width=".5" stroke-linecap="round" stroke-linejoin="round"/><path d="M48.008 19.091L35.22 22.234m9.275-8.193l-1.154.284" stroke="#000" stroke-width=".5" stroke-linecap="round" stroke-linejoin="round"/><path d="M23 40.72v27.925l39.56 9.724V47.266a23.956 23.956 0 00-18.238-23.263A17.213 17.213 0 0023 40.72z" fill="#EDEEEF"/><path d="M36.062 10.571s2.405-1.434 2.35-3.981l4.368 1.315V6.188l4.355 1.717V6.188l1.805.723" stroke="#000" stroke-width=".5" stroke-linecap="round" stroke-linejoin="round"/><path d="M48.008 8.768s2.94-1.616 2.218-6.196c0 0-6.108-3.536-13.501 0L37.368 0s-3.317 1.366-2.732 3.295l-2.17.16 1.809 1.286s-2.672 2.982.893 5.83m-2.702 14.775S8.438 38.332 6.509 58.583c-1.928 20.251 46.182 9.644 50.454 7.956 4.272-1.688 3.549-5.063 3.549-5.063s7.232-2.893 6.509-3.134c-.723-.24-40.502-3.134-40.502-3.134L38.332 44.36" stroke="#000" stroke-width=".5" stroke-linecap="round" stroke-linejoin="round"/><path d="M52.639 27.852s9.925 5.474 18.283 21.225c0 0-.847-23.939 6.707-25.579 7.554-1.64 8.679-1.413 7.232 0-1.446 1.414-3.696 1.848-3.696 1.848s3.214 5.191-1.447 6.155c0 0 16.471 51.466-17.158 37.144" stroke="#000" stroke-width=".5" stroke-linecap="round" stroke-linejoin="round"/></g><defs><clipPath id="clip0"><path fill="#fff" d="M0 0h86.227v191.488H0z"/></clipPath></defs></svg>