<svg width="89" height="478" fill="none" xmlns="http://www.w3.org/2000/svg"><circle cx="44.5" cy="436.5" r="41.5" fill="#18A0FB"/><path d="M58.502 442.535l-.393 20.953c-.02.368-.196.728-.52.869a18.503 18.503 0 01-5.857 2.012c-4.42.769-8.116-.165-10.187-.907a1.013 1.013 0 01-.686-.986l.283-9.233c-2.826.885-2.666.79-2.942.866-3.358.667-6.194.411-6.714.278-1.886-.257-3.802-1.941-5.449-4.719-2.23-3.705-4.093-9.396-4.898-16.138-.16-.958-.163-1.908-.165-2.858l.287-9.428c.058-2.107.693-4.131 1.795-6.025.465-.819.922-1.481 1.479-2.032 5.954-6.86 15.895-5.28 17.67-4.923.207.064.418.075.625.139 1.92.629 3.752.884 5.59 1.034.842.044 1.487.817 1.443 1.659l-.764 13.465c.49-.291 1.328-2 2.341-2.211.748-.171 4.46-1.112 6.755.381 2.345 1.548 4.08 5.408 4.232 6.524.431 2.819-.935 6.438-2.107 8.644-.478.888-1.104 1.76-1.818 2.636z" fill="#fff"/><path d="M41.155 455.284l7.57-2.895-7.74 8.465.17-5.57zm11.978-15.149l.19.099c1.412-.102 2.352-.245 2.819-.432.7-.279 2.75-1.121 4.03-3.374 1.279-2.254 1.6-5.35-.008-7.861-1.558-2.457-4.645-3.939-7.215-3.23-1.445.398-2.45 1.453-2.561 1.553a8.72 8.72 0 00-.859 1.15l-30.361-3.424c-.08-6.483 3.9-14.154 8.424-16.582 1.359-.729 5.654-1.243 9.123-1.278 5.355-.055 10.685 1.205 12.159 1.39 1.205.169 2.332-.327 4.44-.623 3.47.214 5.434.311 6.657 1.487 1.661 1 4.272 2.623 5.288 3.988.632.403 2.173 2.071 3.379 3.981 3.754 5.791 2.418 12.526 1.87 14.08-.188.532-2.056 5.766-4.926 10.465-2.995 4.905-6.993 9.273-6.993 9.273-2.865-.295-4.684-3.849-5.456-10.662zm-30.336-10.271c-.52-.133-.642-.825-.254-1.174.495-.396 1.36-.772 2.412-.717 2.157.114 4.396 1.657 1.943 2.16-1.443.346-3.115.047-4.1-.269zm10.818.941c-.52-.133-.642-.826-.202-1.172.496-.396 1.36-.772 2.465-.714 2.157.114 4.394 1.71 1.943 2.161-1.55.392-3.164-.009-4.206-.275z" fill="#482D1F"/><path d="M26.704 433.816c-.1.891-.335 2.356-.89 2.854-.935.742-1.954-1.949-1.184-3.544.3-.67.673-.756 1.091-.681.626.139 1.016.739.983 1.371zm9.425.339c.006.897-.072 2.371-.631 2.974-.837.853-2.176-1.75-1.561-3.406.246-.673.623-.811 1.044-.789.631.033 1.13.587 1.148 1.221zm-4.886 10.61c.373-.086 1.282-.301 1.47-.872.006-.105.067-.26.02-.368-.191-.379-.834-.202-1.784-.2-1.689.017-3.048-.213-3.048-.213s.313 1.071.559 1.401c.537.819 2.248.382 2.783.252zm-3.019-10.763l.01-.073-.008.036-.002.037zm-1.077 5.515c-.13.588.299 1.195.893 1.326.13.02.13.02.216.031.884.115 1.437.169 2.39.22a.527.527 0 00.055-1.052 26.16 26.16 0 01-2.31-.213l-.169-.022c-.001-.003-.046-.066-.044-.076l1.09-5.601.008-.072.165-3.104a.527.527 0 10-1.053-.056l-.162 3.067-1.08 5.552z" fill="#482D1F"/><circle cx="44.5" cy="308.5" r="41.5" fill="#CA4141"/><path d="M31.86 312.803c-1.702-2.205-3.227-4.278-4.037-5.984-1.201-2.483-.576-9.725 1.695-12.614 2.27-2.889 20.274-16.251 20.5-16.267 1.92-.305 12.73-1.574 18.858 6.1a11.447 11.447 0 011.525 2.232c.999 2.042 1.555 4.285 1.544 6.568l-.088 10.163a25.692 25.692 0 01-.301 3.046c-1.146 7.269-3.406 13.305-5.987 17.194-1.907 2.929-4.067 4.678-6.05 4.874-.564.096-3.634.254-7.287-.575-.238-.061-.176-.01-1.662-.537l.304 6.697c4.928 1.031 11.308 2.453 16.441 6.194-7.327 3.899-15.442 5.653-24.344 5.263-3.83-.167-7.867-.681-12.112-1.541C26 342 25 341.5 21.5 339.5c-.875-.5-3-2-3.628-2.772l.082-.069c1.872-1.542 7.255-2.5 13.13-3.021l.366-20.964.41.129z" fill="#fff"/><path d="M50.572 327.021l-7.918-2.677 8.186 9.34-.268-6.663zm9.034-48.817c3.181.814 6.523 2.458 9.062 5.637a11.456 11.456 0 011.525 2.233c.44.9.795 1.839 1.053 2.804l-28.834 10.055 3.698-19.422c5.516-.804 10.015-1.24 13.496-1.307z" fill="#482D1F"/><path d="M61.837 279.425c-10.096 9.887-16.525 16.346-19.288 19.378-.102.148-.204.3-.307.457-.122-.516-.596-2.193-1.898-3.813-.121-.106-1.174-1.287-2.694-1.809-2.74-.835-6.177.603-7.937 3.18-1.87 2.641-1.635 5.992-.378 8.471 1.258 2.48 3.442 3.526 4.204 3.815l3.065.584.31-.141c-2.253 4.768-4.308 9.059-5.622 9.369-2.39.565-6.077-4.54-8.68-7.013-1.654-1.571-5.628-6.713-6.816-13.875-.353-2.369-1.666-10.403 3.27-16.733 1.721-2.199 3.767-3.35 4.607-3.85 2.86-1.524 13.841-2.396 22.277-2.857-1.607-2.49-2.584-7.65-2.93-15.479a1.137 1.137 0 011.806-.972c6.99 5.082 11.438 8.773 13.345 11.075 1.4-2.228 5.485-4.824 12.256-7.787a1.138 1.138 0 011.555 1.341c-2.808 10.332-4.945 15.76-6.41 16.284-.805.287-2.05.413-3.735.375z" fill="#750C0C"/><path d="M69.092 304.985c.123-.694.769-1.252 1.458-1.186.458.025.823.341 1.049 1.125.309 1.975-1.674 4.624-2.382 3.476-.506-.707-.28-2.377-.125-3.415zm-12.494-.688c.123-.694.768-1.252 1.458-1.186.458.025.822.341 1.048 1.124.31 1.976-1.673 4.625-2.381 3.476-.506-.706-.28-2.376-.125-3.414zm8.259 1.425l.454 5.674c.002.021-.079.114-.106.116-.31.021-.63.023-1.128.01a92.14 92.14 0 00-.344-.01l-.381-.012c-.33-.01-.604-.017-.896-.022a.569.569 0 10-.019 1.138c.286.005.555.012.88.022.096.002.196.006.38.012l.35.01c.532.014.883.012 1.238-.013.654-.045 1.207-.682 1.162-1.336l-.455-5.68a.569.569 0 10-1.135.091zm-3.284 10.152c-.41-.143-1.406-.529-1.503-1.093-.008-.114-.077-.28.033-.345.264-.304.965-.067 2.007.145 1.85.327 3.334.338 3.334.338s-.505.948-.83 1.199c-.633.729-2.453 0-3.04-.244z" fill="#482D1F"/><path d="M47.772 302.763l-3.399-.787a.855.855 0 01.386-1.664l3.655.847a8.082 8.082 0 0115.224 3.535l1.73.091a8.084 8.084 0 11-.058 1.707l-1.799-.095a8.083 8.083 0 11-15.739-3.634zm1.833-.106a6.376 6.376 0 10.154-.365.854.854 0 01-.154.365zm17.393 3.222a6.375 6.375 0 006.82 6.4 6.375 6.375 0 10-.89-12.719 6.376 6.376 0 00-5.92 5.978.85.85 0 01-.01.341z" fill="#482D1F"/><circle cx="44.5" cy="169.5" r="41.5" fill="#CA4141"/><path d="M50.036 191c-.26-.106-.837 11.601-.837 11.601a3.08 3.08 0 01-3.452 2.181c-3.466-.564-5.87-1.113-7.21-1.647-2.66-1.06-4.683-2.243-6.073-3.549a2.464 2.464 0 01-.675-2.492l2.747-12.594v-7l-.92-5.795a8.74 8.74 0 01-1.393-1.283c-1.851-2.206-2.253-10.966-1.06-14.138 1.19-2.988 12.85 1.822 12.889.344.026-.985.228-6.237.605-15.757a1.788 1.788 0 011.834-1.738c2.216.059 4.315-.069 6.67-.561.245.007.493-.048.74-.042 2.101-.252 13.828-.986 20.004 7.682.596.755 1.067 1.569 1.535 2.505a13.474 13.474 0 011.412 7.124l-.726 11.01a30.516 30.516 0 01-.458 3.314c-2.95 13.539-9.175 22.861-14.359 23.154-.617.045-3.945.079-7.796-1.071-.305-.132-2.674-.923-2.674-.923l-.803-.325z" fill="#fff"/><path d="M76.027 167.719c.363 1.543.715 2.827 1.223 4.189.59 1.68 1.516 4.597 2.78 8.751.845 2.844.894 4.761.148 5.75-.795 1.087-10.768 2.186-11.682 2.099l-.495-.045c3.101-4.071 5.946-10.546 7.67-18.462.148-.76.267-1.521.356-2.282zm2.086-4.011c-1.234.235-3.206.34-4.802-.167-2.764-.95.022-2.402 2.546-2.256a4.424 4.424 0 012.7 1.134c.427.435.173 1.172-.444 1.289zm-13.31-.752c-1.234.235-3.207.402-4.926-.168-2.764-.888.022-2.402 2.546-2.256a4.463 4.463 0 012.761 1.134c.49.436.236 1.173-.381 1.29zm-27.106 11.507l.742 11.153-.155-.01.002.019-.026-.021c-12.462-.849-20.775-5.167-26.452-7.816-.99-.46-2.135-1.13-2.753-2.406-.859-1.748-.192-3.703.66-6.067.525-1.416 1.393-3.466 2.967-5.658 1.496-1.994 3.5-4.986 6.09-9.044.21-3.346 1.165-7.591 4.28-11.117 1.84-2.046 3.902-3.1 4.776-3.508 4.805-2.275 8.406-1.008 17.772-1.004 1.91-.011 9.907-.563 10.154-.556 2.101-.252 12.336-.566 18.15 7.784.304.416.608.86.913 1.332-1.911.965-3.424 1.536-4.538 1.711-4.642.801-8.625-.045-11.068-.85a22.748 22.748 0 01-3.082 4.662c-3.676 4.581-8.087 6.864-10.967 8.006-.723-.78-1.967-2.058-3.248-3.084-.182-.128-1.452-1.024-3.111-1.192-2.949-.325-6.091 1.994-7.28 4.981-1.254 3.109-.358 6.46 1.433 8.603 1.59 1.902 3.745 2.605 4.723 2.882.004.394.01.795.018 1.2zm34.74-6.958c.13-.738.751-1.348 1.49-1.28.492.005.921.255 1.098 1.119.475 1.976-1.462 4.853-2.314 3.736-.546-.806-.469-2.53-.274-3.575zm-9.921-.534c.13-.738.751-1.349 1.49-1.28.492.004.921.255 1.098 1.119.475 1.975-1.462 4.852-2.314 3.736-.608-.807-.469-2.53-.274-3.575zm3.815 12.997c-.43-.127-1.474-.445-1.652-1.186.001-.123-.058-.308.004-.431.25-.429 1.05-.175 2.156-.042 1.97.142 3.573.033 3.573.033s-.504 1.228-.816 1.594c-.624.918-2.589.223-3.265.032zm3.326-5.649c-.01-.001-.074.003-.138.006-.614.034-1.069.036-2.717.021a.616.616 0 00-.012 1.232c1.678.015 2.146.013 2.798-.023l.207-.013c.725-.111 1.19-.731 1.197-1.404l-.004-.074-.735-6.555.094-3.591a.616.616 0 10-1.23-.032l-.096 3.633.004.085.734 6.549c-.01.09-.066.161-.102.166zM49.536 198.5l-3.5-9.5 4 2-.5 7.5z" fill="#333"/><circle cx="47.5" cy="41.5" r="41.5" fill="#CA4141"/><path d="M32.191 45.943a7.359 7.359 0 01-.295-.288c-1.741-1.836-2.76-4.752-1.8-7.572.895-2.716 3.56-4.916 6.202-4.805 1.488.046 5.483.96 5.456-.365l-.29-14.025c-.017-.883.67-1.638 1.557-1.655 1.943-.072 3.848-.313 5.897-.87l.673-.095c1.857-.301 12.275-1.579 18.245 5.768.544.608 1.022 1.32 1.488 2.14 1.074 1.875 1.621 4.026 1.61 6.229l-.039 9.803c-.049.986-.097 1.973-.255 2.948-1.895 12.199-6.95 20.815-11.538 21.326-.564.107-3.514.293-7.022-.515-.32-.088-.065.047-4.64-1.56l-.756 7.439a29.354 29.354 0 00-6.834-.94l-9.446-.244 1.193-11.316.518-4.904.076-6.5z" fill="#fff"/><path d="M47.033 66.48l-5.109-6.478 5.535 2.402-.426 4.077zM42.63 37.311a9.254 9.254 0 00-2.66-2.937c-.153-.127-1.347-.86-2.835-.907-2.642-.111-5.307 2.096-6.201 4.822-.961 2.83.003 5.75 1.745 7.592 1.344 1.422 2.977 1.984 3.976 2.226-.01 1.868.029 3.897.116 6.087-4.264-.279-8.021-2.137-11.272-5.575-1.344-1.413-4.914-5.326-6.026-11.58-.127-.795-.38-2.315-.403-4.196-8.46.139-15.303-3.64-17.82-9.002-2.344-5.05-.717-11.095-.485-11.95C3.085 3.276 10.9 3.375 11.569 3.358c0 0 11.267-3.914 20.172 14.106l.017.035c2.553-.2 5.65-.02 10.368-.305 1.724-.096 4.238-.517 7.326-.966.219.023 2.859-.245 3.084-.277 1.115 0 4.853-.353 9.686 1.812 4.833 2.164 6.617 5.419 6.545 5.555-.138.262-2.606 1.378-4.08 1.72-4.135.948-7.727.405-9.934-.16a22.942 22.942 0 01-2.5 4.327c-3.174 4.421-7.174 6.71-9.67 7.83l.047.275zm24.67 2.37a1.402 1.402 0 011.418-1.307c.462-.032.89.283 1.12 1.072.482 1.923-1.347 4.813-2.183 3.663-.514-.712-.399-2.389-.355-3.428zm-12.144-.253a1.402 1.402 0 011.418-1.307c.462-.033.89.283 1.12 1.072.483 1.923-1.347 4.813-2.182 3.663-.514-.712-.4-2.39-.356-3.428zm9.322.84l.866 5.284c.049.672-.418 1.326-1.06 1.371-.377.056-.62.073-1.598.124-.437.022-.736.04-1.09.064a.55.55 0 11-.076-1.097 55.94 55.94 0 011.11-.066c.938-.048 1.167-.064 1.537-.117.024-.004.09-.095.085-.152l-.86-5.233a.55.55 0 011.086-.178zM61.014 50.48c-.374-.095-1.292-.453-1.439-1.045-.008-.12-.073-.297-.025-.36.188-.315.885-.123 1.838-.008 1.694.183 3.105.084 3.105.084s-.4 1.053-.64 1.371c-.524.76-2.247.157-2.839-.043z" fill="#000"/><path d="M46.91 37.133a7.7 7.7 0 0114.963 2.175.82.82 0 01.215-.013l1.548.108a7.698 7.698 0 11.026 1.655l-1.689-.118a.823.823 0 01-.191-.036A7.698 7.698 0 0146.54 38.74l-4.004-.983a.825.825 0 01.394-1.602l3.98.978zm18.349 3.238c.002.056.006.112.01.169a6.048 6.048 0 10-.015-.382.827.827 0 01.005.213zm-10.654 5.324a6.048 6.048 0 10-.843-12.067 6.048 6.048 0 00.843 12.067z" fill="#000"/></svg>