<svg width="175" height="755" fill="none" xmlns="http://www.w3.org/2000/svg"><path d="M35.055 53.087l-15.486-4.866-.492 97.032h17.901l-1.923-4.245c8.657-30.658 0-87.92 0-87.92z" fill="#CA4141"/><path d="M30.585 112.74c0-22.727-4.672-41.15-10.436-41.15a2.762 2.762 0 00-.699.094l-.373 73.57h7.469c2.457-7.529 4.039-19.292 4.039-32.514z" fill="#000"/><path d="M29.95 54.274s3.697 59.597-6.746 87.814l2.181 3.166H6.811S5 72.275 5 55.914l24.95-1.64z" fill="#CA4141"/><path d="M26.005 8.162v7.746l-9.715 2.358V5.196l9.715-2.359v5.325z" fill="#EDEEEF"/><path d="M19.57 12.216s2.365-.769 3.143.407c0 0 .988-1.094 2.26-.21" stroke="#CA4141" stroke-width=".5" stroke-linecap="round" stroke-linejoin="round"/><path d="M20.517 10.842c.143 0 .26-.115.26-.256a.258.258 0 00-.26-.257.258.258 0 00-.26.257c0 .141.116.256.26.256zm3.99 0c.143 0 .26-.115.26-.256a.258.258 0 00-.26-.257.258.258 0 00-.26.257c0 .141.116.256.26.256z" fill="#000"/><path d="M23.336 12.116V8.162h2.006m-5.315 0h2.006" stroke="#000" stroke-width=".5"/><path d="M16.93 10.188v1.373a1.35 1.35 0 01-1.353-1.463c.076-.833 1.352-.746 1.352.09z" fill="#EDEEEF"/><path d="M16.93 11.561c-.75 0-1.359-.6-1.359-1.34" stroke="#000" stroke-width=".5"/><path d="M22.156 13.09a.763.763 0 01-.768-.758" stroke="#CA4141" stroke-width=".5" stroke-linecap="round" stroke-linejoin="round"/><path d="M19.077 17.59l-2.788.676" stroke="#000" stroke-width=".5"/><path d="M23.336 12.12l-.877.212" stroke="#000" stroke-width=".5" stroke-linecap="round"/><path d="M35.055 32.136v20.951L5 60.382V37.049c0-8.274 5.72-15.48 13.856-17.454a13.206 13.206 0 0111.19 2.378 12.857 12.857 0 015.009 10.163z" fill="#EDEEEF"/><path d="M17.407 10.586s-1.465 4.75 1.953 7.222c3.184 2.302 8.201.954 7.014-4.43a15.877 15.877 0 01-.37-3.419v-.32m-9.754-.123s-3.232-5.845 1.745-6.898c0 0 2.024-2.497 4.902-1.287 2.88 1.209 4.262.36 4.301 1.506.04 1.146.181 3.057-1.193 4.033" stroke="#CA4141" stroke-width=".5" stroke-linecap="round" stroke-linejoin="round"/><path d="M18.262 9.516l.815-3.284s5.94.09 6.928-1.507" stroke="#CA4141" stroke-width=".5" stroke-linecap="round" stroke-linejoin="round"/><path d="M29.95 54.274s3.697 59.597-6.746 87.814l2.181 3.166" stroke="#000" stroke-width=".5"/><path d="M11.16 23.569s-5.048 19.683 1.057 27.039c6.106 7.356 34.678 3.015 42.981-4.944 0 0 2.93-.724 3.541-2.17 0 0 2.809 2.05 2.687.723-.122-1.327-1.1-5.46-6.106-4.419-5.006 1.042-29.315 1.525-29.315 1.525l.547-10.37m7.118-4.62s3.671 7.029 3.198 14.687m-1.192 16.61s9.783 3.838 13.92-8.345" stroke="#000" stroke-width=".5"/><path d="M40.187 40.897s10.366-5.287 11.959-3.071l1.593 2.216M137.065 1H70.357v42.066l-21.45 21.183v81.004h-8.72m11.087.453H165" stroke="#000" stroke-width=".5"/><path d="M151.55 144.822s1.959-3.424-3.015-4.168a16.493 16.493 0 00-8.743 1.042s3.467-4.168-1.959-5.955c-5.427-1.786-11.004 2.382-11.004 2.382s5.426-9.974 1.206-10.718c-4.221-.744-6.482 3.573-6.482 3.573s.452-12.356-8.291-12.654c-8.742-.297-7.838 15.78-7.838 15.78s-3.768-7.146-10.1-7.443c-6.33-.298-3.165 11.969-3.165 11.969s-1.206-2.889-5.427-3.186c-4.22-.298-3.919 3.195-3.919 3.195s-5.426-7.512-11.456-7.066c-6.03.447-3.467 7.89-3.467 7.89-6.18-.447-7.537 6.243-7.537 6.243h95.568l-4.371-.884zM73.251 72.35h73.277v42.26H73.251z" fill="#000"/><path fill="#EDEEEF" d="M63.788 63.005h73.277v42.26H63.788z"/><path d="M137.065 63.028v42.26l-73.277-.046" stroke="#000" stroke-width=".5"/><path d="M100.427 97.436c7.438 0 13.469-5.955 13.469-13.301 0-7.347-6.031-13.302-13.469-13.302-7.44 0-13.47 5.955-13.47 13.302 0 7.346 6.03 13.301 13.47 13.301z" fill="#CA4141"/><path d="M72.049 99.853c1.518 0 2.748-1.215 2.748-2.714 0-1.5-1.23-2.714-2.748-2.714-1.518 0-2.748 1.215-2.748 2.714 0 1.499 1.23 2.714 2.748 2.714zm56.755-26.009c1.518 0 2.748-1.215 2.748-2.713 0-1.5-1.23-2.715-2.748-2.715-1.518 0-2.748 1.216-2.748 2.715 0 1.498 1.23 2.713 2.748 2.713zm0 26.009c1.518 0 2.748-1.215 2.748-2.714 0-1.5-1.23-2.714-2.748-2.714-1.518 0-2.748 1.215-2.748 2.714 0 1.499 1.23 2.714 2.748 2.714zM72.049 73.844c1.518 0 2.748-1.215 2.748-2.713 0-1.5-1.23-2.715-2.748-2.715-1.518 0-2.748 1.216-2.748 2.715 0 1.498 1.23 2.713 2.748 2.713z" fill="#D6D6D6"/><path d="M100.427 84.135c-2.11 0-3.821-1.69-3.821-3.773 0-2.084 1.71-3.773 3.821-3.773 2.11 0 3.82 1.689 3.82 3.773" stroke="#fff" stroke-width=".5"/><path d="M100.426 84.135a3.82 3.82 0 013.53 2.329 3.737 3.737 0 01-.828 4.112 3.856 3.856 0 01-4.163.818 3.773 3.773 0 01-2.359-3.486m3.82-13.486v19.425" stroke="#fff" stroke-width=".5"/><path d="M16.22 739.265l5.11 4.461 13.626-17.516 6.131 5.159 32.362-42.776 28.614 50.672 7.835-8.703 14.307 23.615H4.297l11.923-14.912z" fill="#F4F4F4"/><path d="M128.502 754.177H0" stroke="#000" stroke-width=".5"/><path d="M112.591 665.55s-32.701 61.025 37.37 65.199l3.374 2.87V713.53l-23.542-7.305-.692-48.525" fill="#E2E2E2"/><path d="M129.65 696.162c-5.604 2.337-9.824 12.555-9.824 24.806 0 .616.011 1.226.033 1.83 5.707 3.509 13.405 6.133 23.664 7.375.565-3.035.845-6.117.837-9.205a48.84 48.84 0 00-1.118-10.57l-13.449-4.173-.143-10.063z" fill="#000"/><path d="M125.803 750.593l-8.847-85.471 20.259-1.395 3.684 1.509 1.731 88.941m-18.438-135.726a3.977 3.977 0 00-3.418.739 4.023 4.023 0 00-1.529 3.159v3.215a5.395 5.395 0 004.089 5.244l5.089 1.257v-12.569l-4.231-1.045" fill="#EDEEEF"/><path d="M119.245 625.564a5.393 5.393 0 004.089 5.243l5.089 1.258" stroke="#000" stroke-width=".5"/><path d="M124.429 624.926a.246.246 0 100-.492.246.246 0 000 .492zm-3.769 0a.246.246 0 100-.492.246.246 0 000 .492z" fill="#000"/><path d="M121.766 626.151v-3.802h-1.895m5.021 0h-1.895" stroke="#000" stroke-width=".5"/><path d="M127.818 624.297v1.321a1.287 1.287 0 001.278-1.407c-.072-.801-1.278-.718-1.278.086z" fill="#EDEEEF"/><path d="M127.818 625.618c.709 0 1.283-.578 1.283-1.29" stroke="#000" stroke-width=".5"/><path d="M122.802 626.595a.845.845 0 001.201 0" stroke="#CA4141" stroke-width=".5" stroke-linecap="round" stroke-linejoin="round"/><path d="M121.766 626.154l.829.205" stroke="#000" stroke-width=".5" stroke-linecap="round"/><path d="M112.591 645.402v20.147l28.392 7.015v-22.438c0-7.957-5.404-14.885-13.089-16.784h-.001a12.302 12.302 0 00-10.57 2.286 12.443 12.443 0 00-4.732 9.774z" fill="#CA4141"/><path d="M125.803 750.593l-8.847-85.471m9.92-48.519a6.654 6.654 0 014.655 3.305c1.059 1.966 1.229 4.821-3.071 7.918m-6.28 2.55s0 4.135-6.979 3.762l-1.598-1.606s.883-18.308 13.273-15.929" stroke="#000" stroke-width=".5"/><path d="M113.003 633.159c.065 0 1.6 1.609 1.6 1.609" stroke="#CA4141" stroke-width=".5" stroke-linecap="round" stroke-linejoin="round"/><path d="M119.245 624.043s4.183-1.044 5.43-3.609c0 0 1.364 3.552 3.143 3.863m-15.119 9.667s-4.412 2.501-3.662 8.589a7.842 7.842 0 002.812 5.15c.804.68 1.916.857 2.891.461a2.852 2.852 0 001.759-2.351c.13-1.185.38-2.401.843-3.318 1.903-3.769-3.828-7.727-3.828-7.727m21.587 2.341s28.323 31.94.812 48.29l-4.498-7.579 6.402-11.728-6.402-10.784m4.498 30.091l-7.02-11.828" stroke="#000" stroke-width=".5"/><path d="M102.06 637.39a5.562 5.562 0 01.324-3.416c1.33-3.138 4.967-10.911 8.466-11.155 4.388-.305 3.004 3.579 1.447 4.507-.869.55-1.98.527-2.826-.058 0 0-4.203 5.134-3.749 6.726 0 0 2.422 0 1.615 2.319-.707 2.029-4.372 4.99-5.277 1.077z" fill="#CA4141"/><path d="M105.548 631.055s3.287-2.794 0-3.751c-3.288-.956-10.641 9.306-9.43 20.612 1.211 11.305 9.242 18.785 16.473 12.61" stroke="#000" stroke-width=".5"/><path d="M105.667 638.52s.534 5.047 2.197 8.091l1.872-1.615" stroke="#000" stroke-width=".5"/><path d="M52.052 636.579l-7.786 7.948v-7.948h7.786z" fill="#000"/><path fill="#000" d="M83 637.842H31.482v-34.765H83z"/><path d="M31.483 603.077v34.765h12.783m24.716-15.791h-3.167v-3.183h3.167zm-10.157 0h-3.167v-3.183h3.167zm-10.157 0h-3.167v-3.183h3.167z" fill="#000"/><path d="M76.45 620.788l7.787 7.948v-7.948H76.45z" fill="#E2E2E2"/><path d="M84.237 628.736v-7.948" stroke="#000" stroke-width=".5"/><path fill="#EDEEEF" d="M45.502 587.286H97.02v34.765H45.502z"/><path d="M97.02 587.286v34.765H84.237" stroke="#000" stroke-width=".5"/><path fill="#CA4141" d="M59.52 603.077h3.167v3.183H59.52zm10.157 0h3.167v3.183h-3.167zm10.157 0h3.167v3.183h-3.167z"/><path d="M83.532 754.177H160" stroke="#000" stroke-width=".5"/><path d="M150.956 753.572s1.318-2.343-2.027-2.853a10.912 10.912 0 00-5.879.713s2.332-2.853-1.317-4.075c-3.649-1.223-7.399 1.63-7.399 1.63s3.649-6.826.811-7.336c-2.838-.509-4.358 2.445-4.358 2.445s.304-8.456-5.575-8.66c-5.879-.204-5.27 10.8-5.27 10.8s-2.534-4.891-6.791-5.094c-4.257-.204-2.129 8.192-2.129 8.192s-.81-1.977-3.648-2.181c-2.838-.204-2.636 2.187-2.636 2.187s-3.648-5.142-7.703-4.836c-4.054.306-2.33 5.4-2.33 5.4-4.156-.306-5.068 4.273-5.068 4.273h64.258l-2.939-.605z" fill="#000"/><path fill="#EDEEEF" d="M23.158 648.378h37.946v38.145H23.158z"/><path d="M61.104 648.378v38.145H23.158" stroke="#000" stroke-width=".5"/><path d="M38.374 667.984h7.515c1.762 0 3.451.703 4.697 1.956a6.695 6.695 0 011.946 4.722v3.777H31.73v-3.777c0-1.771.7-3.47 1.945-4.722a6.623 6.623 0 014.698-1.956zm3.757-11.523c2.835 0 5.133 2.311 5.133 5.16v3.821H36.998v-3.821a5.17 5.17 0 011.504-3.648 5.118 5.118 0 013.63-1.512z" fill="#CA4141"/><path d="M47.938 427.862L10 440.844l37.938 12.983 37.937-12.983-37.938-12.982z" fill="#000"/><path d="M10 440.844l37.938 12.983 37.937-12.983" stroke="#000" stroke-width=".5"/><path d="M47.938 411.779L10 424.762l37.938 12.982 37.937-12.982-37.938-12.983z" fill="#EDEEEF"/><path d="M10 424.762l37.938 12.983 37.937-12.983" stroke="#000" stroke-width=".5"/><path d="M47.938 395.697L10 408.68l37.938 12.983 37.937-12.983-37.938-12.983z" fill="#C38282"/><path d="M10 408.68l37.938 12.983 37.937-12.983" stroke="#000" stroke-width=".5"/><path d="M27.8 527.055l5.381 4.523 14.35-17.761 6.456 5.231 34.08-43.376 30.132 51.383 8.251-8.826 15.066 23.946H15.246l12.555-15.12z" fill="#F4F4F4"/><path d="M146.041 542.176H10.72" stroke="#000" stroke-width=".5"/><path d="M110.652 451.865s-24.5 40.645-32.7 80.856l-3.021 1.721 14.45 4.634s32.01-46.736 33.923-52.669c1.913-5.933-1.367-34.542-1.367-34.542" fill="#C38282"/><path d="M116.998 470.249s-3.932 19.513-2.855 31.698c4.125-6.423 7.474-11.877 8.723-14.495l-5.868-17.203z" fill="#000"/><path d="M117.741 408.059v7.552l9.665 2.3v-12.745l-9.665-2.3v5.193z" fill="#EDEEEF"/><path d="M123.201 410.672a.254.254 0 00.258-.25.254.254 0 00-.258-.25.255.255 0 00-.259.25c0 .138.116.25.259.25zm-3.969 0a.254.254 0 00.258-.25.254.254 0 00-.258-.25.255.255 0 00-.259.25c0 .138.116.25.259.25z" fill="#000"/><path d="M120.396 411.914v-3.855h-1.995m5.287 0h-1.995" stroke="#000" stroke-width=".5"/><path d="M126.77 410.034v1.339c.358 0 .701-.138.955-.383a1.287 1.287 0 00.39-1.043c-.076-.812-1.345-.728-1.345.087z" fill="#EDEEEF"/><path d="M126.77 411.373c.358 0 .701-.138.955-.383.253-.245.395-.578.395-.925m-2.518 7.417l1.804.429" stroke="#000" stroke-width=".5"/><path d="M120.396 411.917l.873.208" stroke="#000" stroke-width=".5" stroke-linecap="round"/><path d="M117.741 410.172s-1.94 5.506.66 7.31c2.6 1.803 10.331.752 8.234-6.638" stroke="#000" stroke-width=".5"/><path d="M118.889 412.016a.367.367 0 00-.017.372.393.393 0 00.322.205c.559.121 1.404-.944 2.135-.365 0 0 .164-.818 1.984-.328 1.82.489 1.195-.674 1.195-.674" stroke="#000" stroke-width=".5"/><path d="M121.112 412.964c.686.305 1.498.014 1.813-.65" stroke="#C38282" stroke-width=".5" stroke-linecap="round" stroke-linejoin="round"/><path d="M117.045 405.398s.656 2.729 6.643 1.108c0 0 .362 1.486 1.392 1.553 1.031.068.988 1.065.988 1.065" stroke="#000" stroke-width=".5"/><path d="M117.741 408.059s-6.249-5.218 1.091-5.483c7.34-.264 11.313 1.939 8.613 6.804" stroke="#000" stroke-width=".5"/><path d="M110.652 431.435v20.43l29.899 7.113v-22.753c0-8.068-5.69-15.094-13.784-17.019-3.881-.924-7.986-.069-11.132 2.318-3.145 2.387-4.983 6.042-4.983 9.911z" fill="#EDEEEF"/><path d="M140.551 458.978l-23.506-5.592s-1.581 55.311 7.699 85.351l-1.543 2.998h15.407s3.066-70.655 1.943-82.757z" fill="#C38282"/><path d="M117.045 453.386s-1.581 55.311 7.699 85.351m6.433-117.867s17.983 10.279 17.436 27.387c-.546 17.108-13.301 23.987-13.301 23.987m-4.737-9.436s2.642 9.348 7.106 11.288" stroke="#000" stroke-width=".5"/><path d="M128.12 438.145l9.561 11.288-6.866 14.148" stroke="#000" stroke-width=".5"/><path d="M131.42 462.333l6.261-12.9-7.332-8.656s4.467 12.939 1.071 21.556z" fill="#000"/><path d="M113.956 423.048l-12.813 9.823s-14.77-18.217-18.033-19.183c-3.263-.967-7.235 1.058-7.235 1.058v1.196l3.778.665s-.556 4.257 1.848 6.252c0 0 7.454 26.373 18.646 26.456 7.652.057 10.505-1.999 10.505-1.999m-21.178 94.86H170" stroke="#000" stroke-width=".5"/><path d="M160.476 541.562s1.388-2.376-2.135-2.893a11.888 11.888 0 00-6.19.724s2.455-2.893-1.388-4.133c-3.842-1.24-7.791 1.653-7.791 1.653s3.842-6.922.854-7.439c-2.989-.516-4.59 2.48-4.59 2.48s.32-8.576-5.87-8.782c-6.191-.207-5.55 10.951-5.55 10.951s-2.669-4.959-7.151-5.165c-4.483-.207-2.242 8.307-2.242 8.307s-.854-2.005-3.842-2.212c-2.989-.206-2.775 2.218-2.775 2.218s-3.843-5.214-8.112-4.904c-4.27.31-2.455 5.476-2.455 5.476-4.376-.31-5.336 4.332-5.336 4.332h67.668l-3.095-.613z" fill="#000"/><path fill="#E2E2E2" d="M18.263 195.86h79.143v86.277H18.263z"/><path d="M97.406 195.86v86.277H18.263" stroke="#000" stroke-width=".5"/><path fill="#C38282" d="M40.035 193.125h35.599v6.363H40.035z"/><path d="M57.835 195.722c1.334 0 2.415-1.098 2.415-2.452 0-1.354-1.081-2.451-2.415-2.451s-2.415 1.097-2.415 2.451 1.081 2.452 2.415 2.452z" fill="#C38282"/><path fill="#C38282" d="M40.035 193.125h35.599v6.363H40.035z"/><path d="M75.634 193.125v6.363H40.035" stroke="#000" stroke-width=".5"/><path d="M57.835 195.722c1.334 0 2.415-1.098 2.415-2.452 0-1.354-1.081-2.451-2.415-2.451s-2.415 1.097-2.415 2.451 1.081 2.452 2.415 2.452z" fill="#C38282"/><path d="M57.835 282.137v68.442m-42.835 0h85.67" stroke="#000" stroke-width=".5"/><path d="M166.805 347.113v-5.269l-4.792 4.459-1.598-13.985-12.579 9.12-1.597-6.079-4.393 4.458v-7.296l-5.391 6.485-4.792-14.592-5.99 15.008-8.785-11.157-6.589 15.2v-7.296l-3.794 7.094-2.596-9.526-7.188 11.35-10.981-13.985-3.395 13.782-3.195-3.851-2.396 9.546h92.247l.799-3.668-2.995.202z" fill="#F4F4F4"/><path d="M71.554 350.579H175" stroke="#000" stroke-width=".5"/><path d="M142.821 253.232l-22.741-1.517-5.889 23.577-13.521 74.814h18.404l-2.144-3.899 25.891-92.975z" fill="#E2E2E2"/><path d="M145.779 345.978l1.119-42.571-17.895 3.406 4.155 43.293h15.293l-2.672-4.128z" fill="#E2E2E2"/><path d="M140.294 304.664l-11.291 2.149.498 5.193c9.396-1.287 15.867-3.848 15.867-3.848l-5.074-3.494zm-22.43-15.447s-2.847.891-6.614 2.345l-3.638 20.133c6.633 1.229 13.092 1.225 18.74.679l4.045-14.527-12.533-8.63z" fill="#000"/><path d="M117.864 253.697l-22.395 47.137s26.561 14.189 52.982 6.527v-48.813l-30.587-4.851z" fill="#C38282"/><path d="M126.196 206.704v3.497c0 2.703 1.819 5.058 4.406 5.703l5.482 1.368V203.6l-4.558-1.137a4.252 4.252 0 00-3.682.804 4.392 4.392 0 00-1.648 3.437z" fill="#E2E2E2"/><path d="M126.196 210.201c0 2.704 1.819 5.058 4.406 5.704l5.482 1.367" stroke="#000" stroke-width=".5"/><path d="M131.782 209.507c.146 0 .264-.12.264-.269a.266.266 0 00-.264-.268.266.266 0 00-.264.268c0 .149.118.269.264.269zm-4.061 0c.146 0 .265-.12.265-.269a.267.267 0 00-.265-.268.266.266 0 00-.264.268c0 .149.118.269.264.269z" fill="#000"/><path d="M128.913 210.839v-4.135h-2.041m5.408 0h-2.041" stroke="#000" stroke-width=".5"/><path d="M135.433 208.823v1.436c.367 0 .718-.148.977-.411a1.415 1.415 0 00.399-1.12c-.077-.871-1.376-.78-1.376.095z" fill="#E2E2E2"/><path d="M135.433 210.259c.367 0 .718-.148.977-.411s.405-.62.405-.992" stroke="#000" stroke-width=".5"/><path d="M130.029 211.322a.905.905 0 001.294 0" stroke="#C38282" stroke-width=".5" stroke-linecap="round" stroke-linejoin="round"/><path d="M128.913 210.842l.892.223" stroke="#000" stroke-width=".5" stroke-linecap="round"/><path d="M127.986 215.142l-.157.072a3.188 3.188 0 01-3.131-.254 3.291 3.291 0 01-1.437-2.835c.179-5.217 1.388-12.454 6.768-11.936 0 0 5.465-1.272 7.655 3.837 2.19 5.109-.496 7.568-1.6 8.136" stroke="#000" stroke-width=".5"/><path d="M126.08 208.119s4.127-.735 4.596-3.541c0 0 2.044 3.476 4.897 3.811" stroke="#000" stroke-width=".5"/><path d="M117.864 231.78v21.917l30.587 7.631v-24.409c0-8.655-5.821-16.192-14.101-18.258a13.158 13.158 0 00-11.388 2.488c-3.218 2.56-5.098 6.481-5.098 10.631z" fill="#E2E2E2"/><path d="M95.469 300.834s26.561 14.189 52.982 6.527m-8.208-86.06s14.987 10.638 15.043 26.479c.082 23.02-35.142 2.271-36.282-1.513l-1.14-3.785s-4.705-1.967-3.587-2.686c1.119-.719 34.175 6.407 34.175 6.407" stroke="#000" stroke-width=".5"/><path d="M123.259 221.301s-8.609 6.234-12.151 22.506c0 0-5.778-8.126-7.829-11.253-2.05-3.127-3.728-1.046-3.728-1.046s-2.386-3.595-4.082-2.081c-1.696 1.514 2.84 27.473 19.399 30.576m1.41-18.227l-34.684-17.331" stroke="#000" stroke-width=".5"/><path fill="#C38282" d="M28.261 209.837h40.412v41.02H28.261z"/><path fill="#E2E2E2" d="M47.557 220.121h1.82v20.452h-1.82z"/><path d="M58.541 229.423v1.847H38.392v-1.847h20.15z" fill="#E2E2E2"/></svg>