<svg width="404" height="189" fill="none" xmlns="http://www.w3.org/2000/svg"><mask id="a" maskUnits="userSpaceOnUse" x="0" y="0" width="404" height="189"><path fill="#fff" d="M0 0h404v189H0z"/></mask><g mask="url(#a)"><path d="M126.453 42.877V57.19c0 11.07 6.675 20.708 16.17 23.35l20.124 5.599V30.172l-16.733-4.656c-4.712-1.31-9.694-.097-13.513 3.292-3.818 3.388-6.048 8.576-6.048 14.069z" fill="#EDEEEF"/><path d="M126.453 57.191c0 11.07 6.675 20.708 16.17 23.35l20.124 5.599" stroke="#000" stroke-width=".8" stroke-linecap="round" stroke-linejoin="round"/><path d="M146.955 54.351c.536 0 .97-.492.97-1.098 0-.607-.434-1.099-.97-1.099s-.971.492-.971 1.099c0 .606.435 1.098.971 1.098zm-14.905 0c.536 0 .97-.492.97-1.098 0-.607-.434-1.099-.97-1.099s-.971.492-.971 1.099c0 .606.435 1.098.971 1.098z" fill="#000"/><path d="M136.423 59.806v-16.93h-5.735m18.095.001h-7.492" stroke="#000" stroke-width=".8" stroke-linecap="round" stroke-linejoin="round"/><path d="M160.356 51.55v5.88c2.802 0 5.073-2.571 5.073-5.742 0-.177-.007-.35-.021-.523-.284-3.566-5.052-3.194-5.052.386z" fill="#EDEEEF"/><path d="M160.356 57.43c2.802 0 5.073-2.571 5.073-5.742" stroke="#000" stroke-width=".8" stroke-linecap="round" stroke-linejoin="round"/><path d="M140.519 61.784c.63.713 1.484 1.113 2.375 1.113s1.745-.4 2.375-1.113" stroke="#18A0FB" stroke-width=".8" stroke-linecap="round" stroke-linejoin="round"/><path d="M136.423 59.82l3.276.91" stroke="#000" stroke-width=".8" stroke-linecap="round" stroke-linejoin="round"/><path d="M92.646 145.53v89.716l112.274 31.238v-99.92c0-35.43-21.367-66.282-51.761-74.738-14.576-4.055-29.989-.301-41.801 10.182-11.812 10.483-18.712 26.531-18.712 43.522z" fill="#18A0FB"/><path d="M125.684 53.252l-11.118-6.9s16.25-52.668 49.605-29.433c33.355 23.236-1.424 49.764-1.424 49.764" stroke="#000" stroke-width=".8" stroke-linecap="round" stroke-linejoin="round"/><path d="M124.886 44.157s22.07-4.027 29.756-16.24c0 0-3.127 17.684 6.137 21.996m17.856 55.861s38.049 30.29 54.47 72.568c0 0-5.816-77.773 2.395-90.553 4.334-6.746 9.236 2.412 9.236 2.412s21.553-10.157 22.237-6.285C267.657 87.79 255 102.505 255 102.505s18.473 96.273 4.105 123.769c-14.369 27.496-87.237-27.34-87.237-27.34m-60.048-97.325s-33.803 28.358-40.188 56.904c0 0-10.492-77.261-16.422-75.477-5.93 1.784-7.298 7.165-7.298 7.165s-18.701-11.075-21.438-7.195c-2.737 3.88 16.42 25.05 16.42 25.05s-11.589 92.329 1.825 104.82c28.28 26.334 47.927-11.36 47.927-11.36" stroke="#000" stroke-width=".8" stroke-linecap="round" stroke-linejoin="round"/><path d="M239.511 39.2V56h-1.752v-7.752h-10.512V56h-1.776V39.2h1.776v7.488h10.512V39.2h1.752zm8.243 4.176h1.704V56h-1.704V43.376zm.864-2.76c-.352 0-.648-.12-.888-.36s-.36-.528-.36-.864c0-.32.12-.6.36-.84s.536-.36.888-.36.648.12.888.36c.24.224.36.496.36.816 0 .352-.12.648-.36.888s-.536.36-.888.36zm8.893 12.888c.368 0 .672.128.912.384.24.24.36.544.36.912 0 .192-.032.4-.096.624-.048.224-.128.48-.24.768l-1.008 3.312h-1.152l.816-3.48a1.23 1.23 0 01-.624-.432 1.327 1.327 0 01-.24-.792c0-.368.12-.672.36-.912.24-.256.544-.384.912-.384zM275.286 39.2h1.776V56h-1.776V39.2zm10.195-1.128c.368 0 .672.128.912.384.24.24.36.544.36.912 0 .192-.032.4-.096.624a8.35 8.35 0 01-.216.744l-1.032 3.312h-1.152l.84-3.456a1.23 1.23 0 01-.648-.432 1.327 1.327 0 01-.24-.792c0-.384.12-.696.36-.936.24-.24.544-.36.912-.36zm23.758 5.208c1.584 0 2.824.456 3.72 1.368.912.912 1.368 2.256 1.368 4.032V56h-1.704v-7.152c0-1.312-.32-2.312-.96-3-.624-.688-1.512-1.032-2.664-1.032-1.312 0-2.344.408-3.096 1.224-.752.8-1.128 1.912-1.128 3.336V56h-1.704v-7.152c0-1.312-.32-2.312-.96-3-.624-.688-1.52-1.032-2.688-1.032-1.296 0-2.328.408-3.096 1.224-.752.8-1.128 1.912-1.128 3.336V56h-1.704V43.376h1.632v2.304a4.553 4.553 0 011.872-1.776c.8-.416 1.72-.624 2.76-.624 1.056 0 1.968.224 2.736.672.784.448 1.368 1.112 1.752 1.992A4.86 4.86 0 01306.239 44c.88-.48 1.88-.72 3-.72z" fill="#000"/><path d="M347.009 39.2V56h-3.888v-6.888h-7.632V56h-3.888V39.2h3.888v6.624h7.632V39.2h3.888zm19.838 3.888V56h-3.552v-1.536a5.096 5.096 0 01-1.776 1.296 5.722 5.722 0 01-2.232.432c-1.696 0-3.04-.488-4.032-1.464s-1.488-2.424-1.488-4.344v-7.296h3.744v6.744c0 2.08.872 3.12 2.616 3.12.896 0 1.616-.288 2.16-.864.544-.592.816-1.464.816-2.616v-6.384h3.744zm6.589-4.896h3.744V56h-3.744V38.192zm10.339 4.896h3.744V56h-3.744V43.088zm1.872-1.8c-.688 0-1.248-.2-1.68-.6a1.946 1.946 0 01-.648-1.488c0-.592.216-1.088.648-1.488.432-.4.992-.6 1.68-.6s1.248.192 1.68.576c.432.384.648.864.648 1.44 0 .624-.216 1.144-.648 1.56-.432.4-.992.6-1.68.6z" fill="#18A0FB"/></g></svg>